<mxfile host="Electron" modified="2024-03-11T06:19:37.916Z" agent="Mozilla/5.0 (Windows NT 10.0; Win64; x64) AppleWebKit/537.36 (KHTML, like Gecko) draw.io/24.0.4 Chrome/120.0.6099.109 Electron/28.1.0 Safari/537.36" etag="MjzbUpwv_h632O1Rk8rE" version="24.0.4" type="device">
  <diagram name="1 oldal" id="K7b1IJEUViFOQoUs9O1b">
    <mxGraphModel dx="1434" dy="854" grid="1" gridSize="10" guides="1" tooltips="1" connect="1" arrows="1" fold="1" page="1" pageScale="1" pageWidth="827" pageHeight="1169" math="0" shadow="0">
      <root>
        <mxCell id="0" />
        <mxCell id="1" parent="0" />
        <mxCell id="sJh4d1tqF9a-PDi6P2Vy-22" style="edgeStyle=orthogonalEdgeStyle;rounded=0;orthogonalLoop=1;jettySize=auto;html=1;entryX=0;entryY=0.5;entryDx=0;entryDy=0;strokeColor=#ff0000;exitX=0.833;exitY=0.489;exitDx=0;exitDy=0;exitPerimeter=0;" parent="1" source="sJh4d1tqF9a-PDi6P2Vy-3" target="sJh4d1tqF9a-PDi6P2Vy-20" edge="1">
          <mxGeometry relative="1" as="geometry" />
        </mxCell>
        <mxCell id="QqEJKMRVGQwt-r8Xjp_I-7" value="play()" style="edgeLabel;html=1;align=center;verticalAlign=middle;resizable=0;points=[];" parent="sJh4d1tqF9a-PDi6P2Vy-22" vertex="1" connectable="0">
          <mxGeometry x="-0.2765" y="1" relative="1" as="geometry">
            <mxPoint x="2" y="-8" as="offset" />
          </mxGeometry>
        </mxCell>
        <mxCell id="sJh4d1tqF9a-PDi6P2Vy-3" value="" style="ellipse;html=1;shape=startState;fillColor=#000000;strokeColor=#ff0000;" parent="1" vertex="1">
          <mxGeometry x="30" y="380" width="30" height="30" as="geometry" />
        </mxCell>
        <mxCell id="QqEJKMRVGQwt-r8Xjp_I-5" style="edgeStyle=orthogonalEdgeStyle;rounded=0;orthogonalLoop=1;jettySize=auto;html=1;strokeColor=#F01313;" parent="1" source="sJh4d1tqF9a-PDi6P2Vy-20" target="QqEJKMRVGQwt-r8Xjp_I-1" edge="1">
          <mxGeometry relative="1" as="geometry" />
        </mxCell>
        <mxCell id="QqEJKMRVGQwt-r8Xjp_I-6" value="onPickedUp(&lt;i&gt;Student&lt;/i&gt;)" style="edgeLabel;html=1;align=center;verticalAlign=middle;resizable=0;points=[];" parent="QqEJKMRVGQwt-r8Xjp_I-5" vertex="1" connectable="0">
          <mxGeometry x="-0.3222" y="1" relative="1" as="geometry">
            <mxPoint x="16" y="-13" as="offset" />
          </mxGeometry>
        </mxCell>
        <mxCell id="sJh4d1tqF9a-PDi6P2Vy-20" value="Idle" style="rounded=1;whiteSpace=wrap;html=1;arcSize=40;fontColor=#000000;fillColor=#ffffc0;strokeColor=#ff0000;" parent="1" vertex="1">
          <mxGeometry x="110" y="375" width="120" height="40" as="geometry" />
        </mxCell>
        <mxCell id="sJh4d1tqF9a-PDi6P2Vy-34" value="TransistorUse" style="shape=umlFrame;whiteSpace=wrap;html=1;pointerEvents=0;width=110;height=30;" parent="1" vertex="1">
          <mxGeometry x="20" y="330" width="1020" height="130" as="geometry" />
        </mxCell>
        <mxCell id="QqEJKMRVGQwt-r8Xjp_I-8" style="edgeStyle=orthogonalEdgeStyle;rounded=0;orthogonalLoop=1;jettySize=auto;html=1;strokeColor=#F01313;" parent="1" source="QqEJKMRVGQwt-r8Xjp_I-1" target="QqEJKMRVGQwt-r8Xjp_I-2" edge="1">
          <mxGeometry relative="1" as="geometry" />
        </mxCell>
        <mxCell id="QqEJKMRVGQwt-r8Xjp_I-9" value="pairing(&lt;i&gt;Transistor&lt;/i&gt;)" style="edgeLabel;html=1;align=center;verticalAlign=middle;resizable=0;points=[];" parent="QqEJKMRVGQwt-r8Xjp_I-8" vertex="1" connectable="0">
          <mxGeometry x="0.2224" y="-2" relative="1" as="geometry">
            <mxPoint x="-13" y="-15" as="offset" />
          </mxGeometry>
        </mxCell>
        <mxCell id="QqEJKMRVGQwt-r8Xjp_I-1" value="Unpaired" style="rounded=1;whiteSpace=wrap;html=1;arcSize=40;fontColor=#000000;fillColor=#ffffc0;strokeColor=#ff0000;" parent="1" vertex="1">
          <mxGeometry x="340" y="375" width="120" height="40" as="geometry" />
        </mxCell>
        <mxCell id="QqEJKMRVGQwt-r8Xjp_I-10" style="edgeStyle=orthogonalEdgeStyle;rounded=0;orthogonalLoop=1;jettySize=auto;html=1;exitX=1;exitY=0.5;exitDx=0;exitDy=0;entryX=0;entryY=0.5;entryDx=0;entryDy=0;strokeColor=#F01313;" parent="1" source="QqEJKMRVGQwt-r8Xjp_I-2" target="QqEJKMRVGQwt-r8Xjp_I-3" edge="1">
          <mxGeometry relative="1" as="geometry" />
        </mxCell>
        <mxCell id="QqEJKMRVGQwt-r8Xjp_I-2" value="Paired" style="rounded=1;whiteSpace=wrap;html=1;arcSize=40;fontColor=#000000;fillColor=#ffffc0;strokeColor=#ff0000;" parent="1" vertex="1">
          <mxGeometry x="560" y="375" width="120" height="40" as="geometry" />
        </mxCell>
        <mxCell id="QqEJKMRVGQwt-r8Xjp_I-11" style="edgeStyle=orthogonalEdgeStyle;rounded=0;orthogonalLoop=1;jettySize=auto;html=1;exitX=1;exitY=0.5;exitDx=0;exitDy=0;entryX=0;entryY=0.5;entryDx=0;entryDy=0;strokeColor=#F01313;" parent="1" source="QqEJKMRVGQwt-r8Xjp_I-3" target="QqEJKMRVGQwt-r8Xjp_I-4" edge="1">
          <mxGeometry relative="1" as="geometry" />
        </mxCell>
        <mxCell id="QqEJKMRVGQwt-r8Xjp_I-12" value="turnOn()" style="edgeLabel;html=1;align=center;verticalAlign=middle;resizable=0;points=[];" parent="QqEJKMRVGQwt-r8Xjp_I-11" vertex="1" connectable="0">
          <mxGeometry x="0.2039" relative="1" as="geometry">
            <mxPoint x="-6" y="-13" as="offset" />
          </mxGeometry>
        </mxCell>
        <mxCell id="QqEJKMRVGQwt-r8Xjp_I-3" value="Off" style="rounded=1;whiteSpace=wrap;html=1;arcSize=40;fontColor=#000000;fillColor=#ffffc0;strokeColor=#ff0000;" parent="1" vertex="1">
          <mxGeometry x="707" y="375" width="120" height="40" as="geometry" />
        </mxCell>
        <mxCell id="QqEJKMRVGQwt-r8Xjp_I-13" style="edgeStyle=orthogonalEdgeStyle;rounded=1;orthogonalLoop=1;jettySize=auto;html=1;exitX=1;exitY=0.5;exitDx=0;exitDy=0;entryX=0.5;entryY=1;entryDx=0;entryDy=0;strokeColor=#F01313;curved=0;" parent="1" source="QqEJKMRVGQwt-r8Xjp_I-4" target="QqEJKMRVGQwt-r8Xjp_I-3" edge="1">
          <mxGeometry relative="1" as="geometry" />
        </mxCell>
        <mxCell id="QqEJKMRVGQwt-r8Xjp_I-14" value="use(&lt;i&gt;Student&lt;/i&gt;)" style="edgeLabel;html=1;align=center;verticalAlign=middle;resizable=0;points=[];" parent="QqEJKMRVGQwt-r8Xjp_I-13" vertex="1" connectable="0">
          <mxGeometry x="-0.2529" relative="1" as="geometry">
            <mxPoint x="17" y="-9" as="offset" />
          </mxGeometry>
        </mxCell>
        <mxCell id="QqEJKMRVGQwt-r8Xjp_I-4" value="On" style="rounded=1;whiteSpace=wrap;html=1;arcSize=40;fontColor=#000000;fillColor=#ffffc0;strokeColor=#ff0000;" parent="1" vertex="1">
          <mxGeometry x="880" y="375" width="120" height="40" as="geometry" />
        </mxCell>
      </root>
    </mxGraphModel>
  </diagram>
</mxfile>
